<svg xmlns="http://www.w3.org/2000/svg" width="1024" height="256" viewBox="0 0 1024 256">
  <rect width="1024" height="256" fill="none"/>
  <style>.key{fill:#273244;stroke:#dce7f5;stroke-width:3}.x{fill:#58a6ff}.p{fill:#8fd0ff}.n{fill:#e85d75}.t{fill:#fff;font:700 24px sans-serif;text-anchor:middle;dominant-baseline:middle}</style>
  <g id="key-space"><rect class="key" x="8" y="8" width="176" height="48" rx="10"/><text class="t" x="96" y="32">SPACE</text></g>
  <g id="key-e"><rect class="key" x="200" y="8" width="48" height="48" rx="8"/><text class="t" x="224" y="32">E</text></g>
  <g id="key-escape"><rect class="key" x="264" y="8" width="96" height="48" rx="8"/><text class="t" x="312" y="32">ESC</text></g>
  <g id="mouse-left"><path class="key" d="M400 8h48a24 24 0 0 1 24 24v24h-96V32a24 24 0 0 1 24-24z"/><path fill="#dce7f5" d="M400 10h22v42h-44V32a22 22 0 0 1 22-22z"/></g>
  <g id="key-enter"><rect class="key" x="488" y="8" width="112" height="48" rx="8"/><text class="t" x="544" y="32">ENTER</text></g>
  <g id="xbox-a"><circle class="x" cx="40" cy="104" r="28"/><text class="t" x="40" y="104">A</text></g><g id="xbox-b"><circle class="x" cx="112" cy="104" r="28"/><text class="t" x="112" y="104">B</text></g><g id="xbox-x"><circle class="x" cx="184" cy="104" r="28"/><text class="t" x="184" y="104">X</text></g><g id="xbox-y"><circle class="x" cx="256" cy="104" r="28"/><text class="t" x="256" y="104">Y</text></g><g id="xbox-menu"><rect class="x" x="304" y="80" width="96" height="48" rx="20"/><text class="t" x="352" y="104">≡</text></g>
  <g id="ps-cross"><circle class="p" cx="472" cy="104" r="28"/><text class="t" x="472" y="104">×</text></g><g id="ps-circle"><circle class="p" cx="544" cy="104" r="28"/><text class="t" x="544" y="104">○</text></g><g id="ps-square"><circle class="p" cx="616" cy="104" r="28"/><text class="t" x="616" y="104">□</text></g><g id="ps-triangle"><circle class="p" cx="688" cy="104" r="28"/><text class="t" x="688" y="104">△</text></g><g id="ps-options"><rect class="p" x="736" y="80" width="112" height="48" rx="20"/><text class="t" x="792" y="104">OPT</text></g>
  <g id="nintendo-b"><circle class="n" cx="40" cy="184" r="28"/><text class="t" x="40" y="184">B</text></g><g id="nintendo-a"><circle class="n" cx="112" cy="184" r="28"/><text class="t" x="112" y="184">A</text></g><g id="nintendo-y"><circle class="n" cx="184" cy="184" r="28"/><text class="t" x="184" y="184">Y</text></g><g id="nintendo-x"><circle class="n" cx="256" cy="184" r="28"/><text class="t" x="256" y="184">X</text></g><g id="nintendo-plus"><circle class="n" cx="336" cy="184" r="28"/><text class="t" x="336" y="184">+</text></g>
</svg>
